<svg width="539" height="90" viewBox="0 0 539 90" fill="none" xmlns="http://www.w3.org/2000/svg">
<circle cx="16" cy="16" r="15.5" stroke="black"/>
<path d="M20.3077 21.5384C20.3077 23.9999 17.2307 24.6153 16 24.6153C14.7692 24.6153 11.6923 23.9999 11.6923 21.5384M12.3077 14.7692C12.3077 15.9999 11.1688 15.9999 10.4615 15.9999C9.75425 15.9999 8.61535 15.9999 8.61535 14.7692M11.0769 9.23071C9.23073 9.23071 7.38458 9.8461 6.15381 11.6923M19.6923 14.7692C19.6923 15.9999 20.8312 15.9999 21.5384 15.9999C22.2457 15.9999 23.3846 15.9999 23.3846 14.7692M20.923 9.23071C22.7692 9.23071 24.6153 9.8461 25.8461 11.6923" stroke="black" stroke-linecap="round" stroke-linejoin="round"/>
<path d="M49.136 21V18.856V15.32V13.176H50.768V14.712C51.28 13.72 52.288 12.904 53.744 12.904C55.312 12.904 56.336 13.8 56.336 16.152V18.856V21H54.704V18.856V16.232C54.704 14.808 54.16 14.168 53.056 14.168C51.76 14.168 50.928 15.16 50.768 16.28V18.856V21H49.136ZM61.6746 21.272C59.0986 21.272 57.5786 19.544 57.5786 17.08C57.5786 14.616 59.0986 12.904 61.6746 12.904C64.2506 12.904 65.7546 14.616 65.7546 17.08C65.7546 19.544 64.2506 21.272 61.6746 21.272ZM59.1946 17.08C59.1946 19 60.2026 20.024 61.6746 20.024C63.1466 20.024 64.1386 19 64.1386 17.08C64.1386 15.176 63.1466 14.152 61.6746 14.152C60.2026 14.152 59.1946 15.176 59.1946 17.08ZM70.902 21V18.856V10.632V8.52H72.534V10.632V14.712C73.046 13.72 74.054 12.904 75.51 12.904C77.078 12.904 78.102 13.8 78.102 16.152V18.856V21H76.47V18.856V16.232C76.47 14.808 75.926 14.168 74.822 14.168C73.526 14.168 72.694 15.16 72.534 16.28V18.856V21H70.902ZM81.6803 21.224C80.2403 21.224 79.2323 20.52 79.2323 19.112C79.2323 17.576 80.4323 17.08 82.4323 16.488C83.8883 16.056 84.6563 15.848 84.6563 15.048C84.6563 14.392 84.1123 14.056 83.1203 14.056C81.8723 14.056 81.0403 14.664 81.0082 15.768H79.4403C79.6163 14.072 80.9923 12.888 83.2163 12.888C84.9283 12.888 86.2403 13.592 86.2403 15.48V18.616C86.2403 19.688 86.5603 20.008 87.0723 20.008C87.2163 20.008 87.4243 19.976 87.5523 19.864V20.84C87.3443 20.984 86.9603 21.112 86.4643 21.112C85.6323 21.112 84.8643 20.616 84.7363 19.384C84.2883 20.312 83.2963 21.224 81.6803 21.224ZM80.8163 19.032C80.8163 19.8 81.3923 20.072 82.0003 20.072C83.5203 20.072 84.6723 18.76 84.6723 17.288V16.632C84.3683 17.064 83.6803 17.24 82.7843 17.544C81.4243 17.992 80.8163 18.264 80.8163 19.032ZM88.3079 21V18.856V15.32V13.176H89.9399V14.712C90.4519 13.72 91.4599 12.904 92.9159 12.904C94.4839 12.904 95.5079 13.8 95.5079 16.152V18.856V21H93.8759V18.856V16.232C93.8759 14.808 93.3319 14.168 92.2279 14.168C90.9319 14.168 90.0999 15.16 89.9399 16.28V18.856V21H88.3079ZM99.9345 25.096C98.1585 25.096 96.7985 24.536 96.7985 23.208C96.7985 22.536 97.2945 21.864 98.3825 21.464C97.2625 21.416 96.5425 20.84 96.5425 19.976C96.5425 19.16 97.1825 18.536 98.1745 18.056C97.6945 17.544 97.4065 16.84 97.4065 15.992C97.4065 14.072 98.8625 12.904 100.911 12.904C101.903 12.904 102.751 13.176 103.375 13.688C103.551 12.536 104.479 11.784 105.711 11.784V13.16C104.671 13.16 104.031 13.544 103.919 14.296C104.223 14.76 104.399 15.336 104.399 16.008C104.399 17.928 102.975 19.096 100.943 19.096C100.159 19.096 99.4545 18.92 98.8945 18.616C98.2545 18.92 97.8545 19.208 97.8545 19.72C97.8545 20.056 98.1425 20.296 99.1025 20.296C100.671 20.296 102.127 19.944 103.407 19.944C104.799 19.944 105.535 20.456 105.535 21.512C105.535 23.752 102.575 25.096 99.9345 25.096ZM98.1425 22.968C98.1425 23.72 98.9905 23.912 99.9345 23.912C102.191 23.912 104.031 23.064 104.031 21.944C104.031 21.416 103.647 21.24 102.863 21.24C101.023 21.24 98.1425 21.88 98.1425 22.968ZM98.9425 15.992C98.9425 17.144 99.6945 17.912 100.911 17.912C102.127 17.912 102.879 17.144 102.879 15.992C102.879 14.856 102.111 14.088 100.911 14.088C99.6945 14.088 98.9425 14.856 98.9425 15.992ZM109.925 21.272C107.349 21.272 105.829 19.544 105.829 17.08C105.829 14.616 107.349 12.904 109.925 12.904C112.501 12.904 114.005 14.616 114.005 17.08C114.005 19.544 112.501 21.272 109.925 21.272ZM107.445 17.08C107.445 19 108.453 20.024 109.925 20.024C111.397 20.024 112.389 19 112.389 17.08C112.389 15.176 111.397 14.152 109.925 14.152C108.453 14.152 107.445 15.176 107.445 17.08ZM114.832 14.872C114.608 14.28 114.368 13.656 114.192 13.176H116.064L116.64 14.872L118.08 19.048L119.52 14.872L120.096 13.176H121.888L121.232 14.888L119.248 20.008C119.072 20.44 118.96 20.728 118.912 21H117.184L114.832 14.872ZM126.094 21.272C123.87 21.272 122.174 19.8 122.174 17.192C122.174 14.632 123.806 12.904 126.142 12.904C128.606 12.904 130.094 14.632 130.094 17.192H123.726C123.758 18.904 124.638 20.04 126.142 20.04C127.534 20.04 128.254 19.064 128.43 18.184H129.998C129.758 19.688 128.478 21.272 126.094 21.272ZM123.854 16.008H128.446C128.222 14.888 127.438 14.104 126.142 14.104C124.942 14.104 124.142 14.824 123.854 16.008ZM131.339 21V18.856V15.32V13.176H132.971V15.08C133.243 14.136 134.203 12.968 136.203 12.952V14.408C134.059 14.408 133.003 15.448 132.971 17.128V18.856V21H131.339ZM140.007 21.272C137.815 21.272 136.359 20.216 136.135 18.36H137.703C137.879 19.464 138.647 20.024 140.023 20.024C140.887 20.024 141.671 19.8 141.671 19.064C141.671 18.296 141.127 18.136 139.415 17.624C137.863 17.16 136.567 16.632 136.567 15.176C136.567 13.8 137.831 12.904 139.703 12.904C141.799 12.904 142.951 13.88 143.191 15.384H141.623C141.495 14.616 140.871 14.152 139.639 14.152C138.743 14.152 138.135 14.44 138.135 15.064C138.135 15.816 138.855 16.04 140.375 16.488C142.327 17.064 143.271 17.576 143.271 18.952C143.271 20.552 141.815 21.272 140.007 21.272ZM147.974 17.512V16.376H153.398V17.512H147.974ZM158.73 21V18.856V15.32V13.176H160.362V14.712C160.874 13.72 161.882 12.904 163.338 12.904C164.906 12.904 165.93 13.8 165.93 16.152V18.856V21H164.298V18.856V16.232C164.298 14.808 163.754 14.168 162.65 14.168C161.354 14.168 160.522 15.16 160.362 16.28V18.856V21H158.73ZM171.268 21.272C168.692 21.272 167.172 19.544 167.172 17.08C167.172 14.616 168.692 12.904 171.268 12.904C173.844 12.904 175.348 14.616 175.348 17.08C175.348 19.544 173.844 21.272 171.268 21.272ZM168.788 17.08C168.788 19 169.796 20.024 171.268 20.024C172.74 20.024 173.732 19 173.732 17.08C173.732 15.176 172.74 14.152 171.268 14.152C169.796 14.152 168.788 15.176 168.788 17.08ZM180.48 21V18.856V15.32V13.176H182.112V15.08C182.384 14.136 183.344 12.968 185.344 12.952V14.408C183.2 14.408 182.144 15.448 182.112 17.128V18.856V21H180.48ZM189.407 21.272C187.183 21.272 185.487 19.8 185.487 17.192C185.487 14.632 187.119 12.904 189.455 12.904C191.919 12.904 193.407 14.632 193.407 17.192H187.039C187.071 18.904 187.951 20.04 189.455 20.04C190.847 20.04 191.567 19.064 191.743 18.184H193.311C193.071 19.688 191.791 21.272 189.407 21.272ZM187.167 16.008H191.759C191.535 14.888 190.751 14.104 189.455 14.104C188.255 14.104 187.455 14.824 187.167 16.008ZM197.185 25.096C195.409 25.096 194.049 24.536 194.049 23.208C194.049 22.536 194.545 21.864 195.633 21.464C194.513 21.416 193.793 20.84 193.793 19.976C193.793 19.16 194.433 18.536 195.424 18.056C194.945 17.544 194.657 16.84 194.657 15.992C194.657 14.072 196.113 12.904 198.161 12.904C199.153 12.904 200.001 13.176 200.625 13.688C200.801 12.536 201.729 11.784 202.961 11.784V13.16C201.921 13.16 201.281 13.544 201.169 14.296C201.473 14.76 201.649 15.336 201.649 16.008C201.649 17.928 200.225 19.096 198.193 19.096C197.409 19.096 196.705 18.92 196.145 18.616C195.505 18.92 195.105 19.208 195.105 19.72C195.105 20.056 195.393 20.296 196.353 20.296C197.921 20.296 199.377 19.944 200.657 19.944C202.049 19.944 202.785 20.456 202.785 21.512C202.785 23.752 199.825 25.096 197.185 25.096ZM195.393 22.968C195.393 23.72 196.241 23.912 197.185 23.912C199.441 23.912 201.281 23.064 201.281 21.944C201.281 21.416 200.897 21.24 200.113 21.24C198.273 21.24 195.393 21.88 195.393 22.968ZM196.193 15.992C196.193 17.144 196.945 17.912 198.161 17.912C199.377 17.912 200.129 17.144 200.129 15.992C200.129 14.856 199.361 14.088 198.161 14.088C196.945 14.088 196.193 14.856 196.193 15.992ZM203.745 21V18.856V15.32V13.176H205.377V15.08C205.649 14.136 206.609 12.968 208.609 12.952V14.408C206.465 14.408 205.409 15.448 205.377 17.128V18.856V21H203.745ZM212.672 21.272C210.448 21.272 208.752 19.8 208.752 17.192C208.752 14.632 210.384 12.904 212.72 12.904C215.184 12.904 216.672 14.632 216.672 17.192H210.304C210.336 18.904 211.216 20.04 212.72 20.04C214.112 20.04 214.832 19.064 215.008 18.184H216.576C216.336 19.688 215.056 21.272 212.672 21.272ZM210.432 16.008H215.024C214.8 14.888 214.016 14.104 212.72 14.104C211.52 14.104 210.72 14.824 210.432 16.008ZM220.784 21.144C219.392 21.144 218.368 20.456 218.368 18.328V14.36H216.688V13.176H218.368V11.144L219.904 9.992H220V13.176H222.528V14.36H220V18.296C220 19.56 220.576 19.912 221.296 19.912C221.952 19.912 222.464 19.624 222.816 19.144L223.04 20.2C222.688 20.664 221.92 21.144 220.784 21.144ZM226.976 21.272C224.784 21.272 223.328 20.216 223.104 18.36H224.672C224.848 19.464 225.616 20.024 226.992 20.024C227.856 20.024 228.64 19.8 228.64 19.064C228.64 18.296 228.096 18.136 226.384 17.624C224.832 17.16 223.536 16.632 223.536 15.176C223.536 13.8 224.799 12.904 226.672 12.904C228.768 12.904 229.92 13.88 230.16 15.384H228.592C228.464 14.616 227.84 14.152 226.608 14.152C225.712 14.152 225.104 14.44 225.104 15.064C225.104 15.816 225.824 16.04 227.344 16.488C229.296 17.064 230.24 17.576 230.24 18.952C230.24 20.552 228.784 21.272 226.976 21.272Z" fill="black"/>
<circle cx="299" cy="16" r="15.5" stroke="black"/>
<path d="M301.31 11.3692C301.31 13.9203 299.161 15.2186 299 15.2186C298.839 15.2186 296.69 13.9203 296.69 11.3692C296.69 9.58796 298.069 6.75 299 6.75C299.931 6.75 301.31 9.58796 301.31 11.3692Z" stroke="black"/>
<path d="M304.107 16.7576C301.681 17.5459 299.782 15.9036 299.732 15.7505C299.683 15.5974 300.253 13.1528 302.68 12.3644C304.374 11.814 307.499 12.2483 307.786 13.1336C308.074 14.0189 305.801 16.2071 304.107 16.7576Z" stroke="black"/>
<path d="M299.847 21.0829C298.347 19.019 299.322 16.7058 299.453 16.6112C299.583 16.5166 302.084 16.3039 303.584 18.3678C304.631 19.8089 305.183 22.9153 304.43 23.4624C303.677 24.0096 300.894 22.524 299.847 21.0829Z" stroke="black"/>
<path d="M294.416 18.3679C295.916 16.304 298.417 16.5167 298.547 16.6113C298.677 16.706 299.653 19.0191 298.153 21.083C297.106 22.5241 294.323 24.0097 293.569 23.4625C292.816 22.9154 293.369 19.809 294.416 18.3679Z" stroke="black"/>
<path d="M295.321 12.3645C297.747 13.1528 298.318 15.5974 298.268 15.7506C298.218 15.9037 296.319 17.546 293.893 16.7576C292.199 16.2072 289.926 14.019 290.214 13.1336C290.501 12.2483 293.626 11.814 295.321 12.3645Z" stroke="black"/>
<path d="M334.024 21.224C332.584 21.224 331.576 20.52 331.576 19.112C331.576 17.576 332.776 17.08 334.776 16.488C336.232 16.056 337 15.848 337 15.048C337 14.392 336.456 14.056 335.464 14.056C334.216 14.056 333.384 14.664 333.352 15.768H331.784C331.96 14.072 333.336 12.888 335.56 12.888C337.272 12.888 338.584 13.592 338.584 15.48V18.616C338.584 19.688 338.904 20.008 339.416 20.008C339.56 20.008 339.768 19.976 339.896 19.864V20.84C339.688 20.984 339.304 21.112 338.808 21.112C337.976 21.112 337.208 20.616 337.08 19.384C336.632 20.312 335.64 21.224 334.024 21.224ZM333.16 19.032C333.16 19.8 333.736 20.072 334.344 20.072C335.864 20.072 337.016 18.76 337.016 17.288V16.632C336.712 17.064 336.024 17.24 335.128 17.544C333.768 17.992 333.16 18.264 333.16 19.032ZM340.62 24.84V22.92V15.096V13.176H342.252V14.648C342.812 13.608 343.772 12.904 345.116 12.904C347.292 12.904 348.46 14.696 348.46 17C348.46 19.336 347.228 21.144 344.972 21.144C343.804 21.144 342.828 20.632 342.252 19.8V22.92V24.84H340.62ZM342.252 18.504C342.732 19.4 343.548 20.056 344.588 20.056C345.996 20.056 346.86 18.84 346.86 17.032C346.86 15.448 346.172 14.152 344.62 14.152C343.084 14.152 342.252 15.56 342.252 17.272V18.504ZM349.667 24.84V22.92V15.096V13.176H351.299V14.648C351.859 13.608 352.819 12.904 354.163 12.904C356.339 12.904 357.507 14.696 357.507 17C357.507 19.336 356.275 21.144 354.019 21.144C352.851 21.144 351.875 20.632 351.299 19.8V22.92V24.84H349.667ZM351.299 18.504C351.779 19.4 352.595 20.056 353.635 20.056C355.043 20.056 355.907 18.84 355.907 17.032C355.907 15.448 355.219 14.152 353.667 14.152C352.131 14.152 351.299 15.56 351.299 17.272V18.504ZM358.745 21V18.856V15.32V13.176H360.377V15.08C360.649 14.136 361.609 12.968 363.609 12.952V14.408C361.465 14.408 360.409 15.448 360.377 17.128V18.856V21H358.745ZM367.768 21.272C365.192 21.272 363.672 19.544 363.672 17.08C363.672 14.616 365.192 12.904 367.768 12.904C370.344 12.904 371.848 14.616 371.848 17.08C371.848 19.544 370.344 21.272 367.768 21.272ZM365.288 17.08C365.288 19 366.296 20.024 367.768 20.024C369.24 20.024 370.232 19 370.232 17.08C370.232 15.176 369.24 14.152 367.768 14.152C366.296 14.152 365.288 15.176 365.288 17.08ZM375.055 21.224C373.615 21.224 372.607 20.52 372.607 19.112C372.607 17.576 373.807 17.08 375.807 16.488C377.263 16.056 378.031 15.848 378.031 15.048C378.031 14.392 377.487 14.056 376.495 14.056C375.247 14.056 374.415 14.664 374.383 15.768H372.815C372.991 14.072 374.367 12.888 376.591 12.888C378.303 12.888 379.615 13.592 379.615 15.48V18.616C379.615 19.688 379.935 20.008 380.447 20.008C380.591 20.008 380.799 19.976 380.927 19.864V20.84C380.719 20.984 380.335 21.112 379.839 21.112C379.007 21.112 378.239 20.616 378.111 19.384C377.663 20.312 376.671 21.224 375.055 21.224ZM374.191 19.032C374.191 19.8 374.767 20.072 375.375 20.072C376.895 20.072 378.047 18.76 378.047 17.288V16.632C377.743 17.064 377.055 17.24 376.159 17.544C374.799 17.992 374.191 18.264 374.191 19.032ZM385.031 21.272C382.791 21.272 381.079 19.72 381.079 17.048C381.079 14.408 382.775 12.904 385.111 12.904C387.255 12.904 388.679 14.264 388.951 15.928H387.415C387.223 15.112 386.583 14.136 385.127 14.136C383.479 14.136 382.679 15.416 382.679 17.048C382.679 18.664 383.479 20.04 385.127 20.04C386.663 20.04 387.287 18.952 387.447 17.88H388.983C388.775 19.688 387.463 21.272 385.031 21.272ZM390.152 21V18.856V10.632V8.52H391.784V10.632V14.712C392.296 13.72 393.304 12.904 394.76 12.904C396.328 12.904 397.352 13.8 397.352 16.152V18.856V21H395.72V18.856V16.232C395.72 14.808 395.176 14.168 394.072 14.168C392.776 14.168 391.944 15.16 391.784 16.28V18.856V21H390.152ZM400.93 21.224C399.49 21.224 398.482 20.52 398.482 19.112C398.482 17.576 399.682 17.08 401.682 16.488C403.138 16.056 403.906 15.848 403.906 15.048C403.906 14.392 403.362 14.056 402.37 14.056C401.122 14.056 400.29 14.664 400.258 15.768H398.69C398.866 14.072 400.242 12.888 402.466 12.888C404.178 12.888 405.49 13.592 405.49 15.48V18.616C405.49 19.688 405.81 20.008 406.322 20.008C406.466 20.008 406.674 19.976 406.802 19.864V20.84C406.594 20.984 406.21 21.112 405.714 21.112C404.882 21.112 404.114 20.616 403.986 19.384C403.538 20.312 402.546 21.224 400.93 21.224ZM400.066 19.032C400.066 19.8 400.642 20.072 401.25 20.072C402.77 20.072 403.922 18.76 403.922 17.288V16.632C403.618 17.064 402.93 17.24 402.034 17.544C400.674 17.992 400.066 18.264 400.066 19.032ZM407.574 21V18.856V10.632V8.52H409.206V10.632V14.648C409.766 13.608 410.726 12.904 412.07 12.904C414.246 12.904 415.414 14.696 415.414 17C415.414 19.336 414.182 21.144 411.926 21.144C410.758 21.144 409.782 20.632 409.206 19.8V21H407.574ZM409.206 18.504C409.686 19.4 410.502 20.056 411.542 20.056C412.95 20.056 413.814 18.84 413.814 17.032C413.814 15.448 413.126 14.152 411.574 14.152C410.038 14.152 409.206 15.56 409.206 17.272V18.504ZM416.668 21V18.856V10.632V8.52H418.3V10.632V18.856V21H416.668ZM423.641 21.272C421.417 21.272 419.721 19.8 419.721 17.192C419.721 14.632 421.353 12.904 423.689 12.904C426.153 12.904 427.641 14.632 427.641 17.192H421.273C421.305 18.904 422.185 20.04 423.689 20.04C425.081 20.04 425.801 19.064 425.977 18.184H427.545C427.305 19.688 426.025 21.272 423.641 21.272ZM421.401 16.008H425.993C425.769 14.888 424.985 14.104 423.689 14.104C422.489 14.104 421.689 14.824 421.401 16.008ZM436.507 21.208C434.219 21.208 432.523 20.056 432.523 17.912C432.523 16.328 433.467 15.256 435.291 14.248C434.139 12.984 433.739 12.216 433.739 11.24C433.739 9.688 434.987 8.648 436.843 8.648C438.555 8.648 439.867 9.592 439.867 11.224C439.867 12.6 438.923 13.64 437.339 14.44L440.123 17.272C440.555 16.392 440.827 15.432 440.987 14.664L442.635 14.68C442.171 16.024 441.675 17.24 441.083 18.248L443.659 20.872V21H441.851L440.283 19.384C439.323 20.536 438.123 21.208 436.507 21.208ZM434.203 17.752C434.203 19.128 435.211 19.944 436.715 19.928C437.883 19.928 438.747 19.32 439.403 18.472L436.091 15.064C434.763 15.896 434.203 16.68 434.203 17.752ZM435.227 11.336C435.227 12.088 435.627 12.664 436.571 13.656C437.899 12.92 438.363 12.2 438.363 11.336C438.363 10.28 437.675 9.832 436.859 9.832C435.899 9.832 435.227 10.328 435.227 11.336ZM451.413 21.272C449.221 21.272 447.765 20.216 447.541 18.36H449.109C449.285 19.464 450.053 20.024 451.429 20.024C452.293 20.024 453.077 19.8 453.077 19.064C453.077 18.296 452.533 18.136 450.821 17.624C449.269 17.16 447.973 16.632 447.973 15.176C447.973 13.8 449.237 12.904 451.109 12.904C453.205 12.904 454.357 13.88 454.597 15.384H453.029C452.901 14.616 452.277 14.152 451.045 14.152C450.149 14.152 449.541 14.44 449.541 15.064C449.541 15.816 450.261 16.04 451.781 16.488C453.733 17.064 454.677 17.576 454.677 18.952C454.677 20.552 453.221 21.272 451.413 21.272ZM458.706 21.144C457.314 21.144 456.29 20.456 456.29 18.328V14.36H454.61V13.176H456.29V11.144L457.826 9.992H457.922V13.176H460.45V14.36H457.922V18.296C457.922 19.56 458.498 19.912 459.218 19.912C459.874 19.912 460.386 19.624 460.738 19.144L460.962 20.2C460.61 20.664 459.842 21.144 458.706 21.144ZM463.633 21.224C462.193 21.224 461.185 20.52 461.185 19.112C461.185 17.576 462.385 17.08 464.385 16.488C465.841 16.056 466.609 15.848 466.609 15.048C466.609 14.392 466.065 14.056 465.073 14.056C463.825 14.056 462.993 14.664 462.961 15.768H461.393C461.569 14.072 462.945 12.888 465.169 12.888C466.881 12.888 468.193 13.592 468.193 15.48V18.616C468.193 19.688 468.513 20.008 469.025 20.008C469.169 20.008 469.377 19.976 469.505 19.864V20.84C469.297 20.984 468.913 21.112 468.417 21.112C467.585 21.112 466.817 20.616 466.689 19.384C466.241 20.312 465.249 21.224 463.633 21.224ZM462.769 19.032C462.769 19.8 463.345 20.072 463.953 20.072C465.473 20.072 466.625 18.76 466.625 17.288V16.632C466.321 17.064 465.633 17.24 464.737 17.544C463.377 17.992 462.769 18.264 462.769 19.032ZM473.609 21.272C471.369 21.272 469.657 19.72 469.657 17.048C469.657 14.408 471.353 12.904 473.689 12.904C475.833 12.904 477.257 14.264 477.529 15.928H475.993C475.801 15.112 475.161 14.136 473.705 14.136C472.057 14.136 471.257 15.416 471.257 17.048C471.257 18.664 472.057 20.04 473.705 20.04C475.241 20.04 475.865 18.952 476.025 17.88H477.561C477.353 19.688 476.041 21.272 473.609 21.272ZM483.994 21L480.362 17.048V18.856V21H478.73V18.856V10.632V8.568V8.52H480.362V10.632V16.104L482.666 14.152C482.986 13.88 483.434 13.464 483.754 13.176H485.482V13.288C485.114 13.608 484.746 13.912 484.362 14.232L481.674 16.472L485.898 20.904V21H483.994ZM488.118 21.224C486.678 21.224 485.67 20.52 485.67 19.112C485.67 17.576 486.87 17.08 488.87 16.488C490.326 16.056 491.094 15.848 491.094 15.048C491.094 14.392 490.55 14.056 489.558 14.056C488.31 14.056 487.478 14.664 487.446 15.768H485.878C486.054 14.072 487.43 12.888 489.654 12.888C491.366 12.888 492.678 13.592 492.678 15.48V18.616C492.678 19.688 492.998 20.008 493.51 20.008C493.654 20.008 493.862 19.976 493.99 19.864V20.84C493.782 20.984 493.398 21.112 492.902 21.112C492.07 21.112 491.302 20.616 491.174 19.384C490.726 20.312 489.734 21.224 488.118 21.224ZM487.254 19.032C487.254 19.8 487.83 20.072 488.438 20.072C489.958 20.072 491.11 18.76 491.11 17.288V16.632C490.806 17.064 490.118 17.24 489.222 17.544C487.862 17.992 487.254 18.264 487.254 19.032ZM494.761 21V18.856V10.632V8.52H496.393V10.632V14.648C496.953 13.608 497.913 12.904 499.257 12.904C501.433 12.904 502.601 14.696 502.601 17C502.601 19.336 501.369 21.144 499.113 21.144C497.945 21.144 496.969 20.632 496.393 19.8V21H494.761ZM496.393 18.504C496.873 19.4 497.689 20.056 498.729 20.056C500.137 20.056 501.001 18.84 501.001 17.032C501.001 15.448 500.313 14.152 498.761 14.152C497.225 14.152 496.393 15.56 496.393 17.272V18.504ZM503.855 21V18.856V10.632V8.52H505.487V10.632V18.856V21H503.855ZM510.829 21.272C508.605 21.272 506.909 19.8 506.909 17.192C506.909 14.632 508.541 12.904 510.877 12.904C513.341 12.904 514.829 14.632 514.829 17.192H508.461C508.493 18.904 509.373 20.04 510.877 20.04C512.269 20.04 512.989 19.064 513.165 18.184H514.733C514.493 19.688 513.213 21.272 510.829 21.272ZM508.589 16.008H513.181C512.957 14.888 512.173 14.104 510.877 14.104C509.677 14.104 508.877 14.824 508.589 16.008Z" fill="black"/>
<path fill-rule="evenodd" clip-rule="evenodd" d="M299 89C307.284 89 314 82.2843 314 74C314 65.7157 307.284 59 299 59C290.716 59 284 65.7157 284 74C284 82.2843 290.716 89 299 89ZM299 90C307.837 90 315 82.8366 315 74C315 65.1634 307.837 58 299 58C290.163 58 283 65.1634 283 74C283 82.8366 290.163 90 299 90Z" fill="black"/>
<path fill-rule="evenodd" clip-rule="evenodd" d="M299 65C294.029 65 290 69.0294 290 74C290 78.9706 294.029 83 299 83C303.971 83 308 78.9706 308 74C308 69.0294 303.971 65 299 65ZM289 74C289 68.4772 293.477 64 299 64C304.523 64 309 68.4772 309 74C309 79.5228 304.523 84 299 84C293.477 84 289 79.5228 289 74Z" fill="black"/>
<path fill-rule="evenodd" clip-rule="evenodd" d="M299 64C299.276 64 299.5 64.2239 299.5 64.5V74C299.5 74.2761 299.276 74.5 299 74.5H289.5C289.224 74.5 289 74.2761 289 74C289 73.7239 289.224 73.5 289.5 73.5H298.5V64.5C298.5 64.2239 298.724 64 299 64Z" fill="black"/>
<path fill-rule="evenodd" clip-rule="evenodd" d="M298.5 71.5C298.5 71.2239 298.724 71 299 71H308C308.276 71 308.5 71.2239 308.5 71.5C308.5 71.7761 308.276 72 308 72H299C298.724 72 298.5 71.7761 298.5 71.5Z" fill="black"/>
<path fill-rule="evenodd" clip-rule="evenodd" d="M298.5 69C298.5 68.7239 298.724 68.5 299 68.5H307C307.276 68.5 307.5 68.7239 307.5 69C307.5 69.2761 307.276 69.5 307 69.5H299C298.724 69.5 298.5 69.2761 298.5 69Z" fill="black"/>
<path fill-rule="evenodd" clip-rule="evenodd" d="M298.5 66.5C298.5 66.2239 298.724 66 299 66H304.75C305.026 66 305.25 66.2239 305.25 66.5C305.25 66.7761 305.026 67 304.75 67H299C298.724 67 298.5 66.7761 298.5 66.5Z" fill="black"/>
<path fill-rule="evenodd" clip-rule="evenodd" d="M289 74C289 73.7239 289.224 73.5 289.5 73.5H308.25C308.526 73.5 308.75 73.7239 308.75 74C308.75 74.2761 308.526 74.5 308.25 74.5H289.5C289.224 74.5 289 74.2761 289 74Z" fill="black"/>
<path fill-rule="evenodd" clip-rule="evenodd" d="M289.383 76.5C289.383 76.2239 289.607 76 289.883 76H308.124C308.4 76 308.624 76.2239 308.624 76.5C308.624 76.7761 308.4 77 308.124 77H289.883C289.607 77 289.383 76.7761 289.383 76.5Z" fill="black"/>
<path fill-rule="evenodd" clip-rule="evenodd" d="M290.5 79C290.5 78.7239 290.724 78.5 291 78.5H307C307.276 78.5 307.5 78.7239 307.5 79C307.5 79.2761 307.276 79.5 307 79.5H291C290.724 79.5 290.5 79.2761 290.5 79Z" fill="black"/>
<path fill-rule="evenodd" clip-rule="evenodd" d="M292.75 81.5C292.75 81.2239 292.974 81 293.25 81H304.75C305.026 81 305.25 81.2239 305.25 81.5C305.25 81.7761 305.026 82 304.75 82H293.25C292.974 82 292.75 81.7761 292.75 81.5Z" fill="black"/>
<path fill-rule="evenodd" clip-rule="evenodd" d="M295.675 66.5181C295.919 66.0558 296.581 66.0558 296.825 66.5181L296.979 66.8106L297.305 66.867C297.82 66.9561 298.025 67.5857 297.661 67.9605L297.43 68.1976L297.477 68.525C297.552 69.0423 297.016 69.4314 296.547 69.2008L296.25 69.0549L295.953 69.2008C295.484 69.4314 294.949 69.0423 295.023 68.525L295.07 68.1976L294.84 67.9605C294.476 67.5857 294.68 66.9561 295.195 66.867L295.521 66.8106L295.675 66.5181ZM296.25 67.5415C296.181 67.625 296.092 67.6898 295.991 67.73C296.049 67.8217 296.083 67.9266 296.09 68.0349C296.195 68.0082 296.305 68.0082 296.411 68.0349C296.418 67.9266 296.452 67.8217 296.51 67.73C296.409 67.6898 296.32 67.625 296.25 67.5415Z" fill="black"/>
<path fill-rule="evenodd" clip-rule="evenodd" d="M295.675 70.0181C295.919 69.5558 296.581 69.5558 296.825 70.0181L296.979 70.3106L297.305 70.367C297.82 70.4561 298.025 71.0857 297.661 71.4605L297.43 71.6976L297.477 72.025C297.552 72.5423 297.016 72.9314 296.547 72.7008L296.25 72.5549L295.953 72.7008C295.484 72.9314 294.949 72.5423 295.023 72.025L295.07 71.6976L294.84 71.4605C294.476 71.0857 294.68 70.4561 295.195 70.367L295.521 70.3106L295.675 70.0181ZM296.25 71.0415C296.181 71.125 296.092 71.1898 295.991 71.23C296.049 71.3217 296.083 71.4266 296.09 71.5349C296.195 71.5082 296.305 71.5082 296.411 71.5349C296.418 71.4266 296.452 71.3217 296.51 71.23C296.409 71.1898 296.32 71.125 296.25 71.0415Z" fill="black"/>
<path fill-rule="evenodd" clip-rule="evenodd" d="M292.175 70.0181C292.419 69.5558 293.081 69.5558 293.325 70.0181L293.479 70.3106L293.805 70.367C294.32 70.4561 294.525 71.0857 294.161 71.4605L293.93 71.6976L293.977 72.025C294.052 72.5423 293.516 72.9314 293.047 72.7008L292.75 72.5549L292.453 72.7008C291.984 72.9314 291.449 72.5423 291.523 72.025L291.57 71.6976L291.34 71.4605C290.976 71.0857 291.18 70.4561 291.695 70.367L292.021 70.3106L292.175 70.0181ZM292.75 71.0415C292.681 71.125 292.592 71.1898 292.491 71.23C292.549 71.3217 292.583 71.4266 292.59 71.5349C292.695 71.5082 292.805 71.5082 292.911 71.5349C292.918 71.4266 292.952 71.3217 293.01 71.23C292.909 71.1898 292.82 71.125 292.75 71.0415Z" fill="black"/>
<path d="M332.136 79V76.856V73.32V71.176H333.736V72.68C334.248 71.704 335.208 70.904 336.632 70.904C337.864 70.904 338.76 71.48 339.064 72.92C339.528 71.848 340.536 70.904 342.072 70.904C343.608 70.904 344.616 71.8 344.616 74.152V76.856V79H343.016V76.856V74.232C343.016 72.808 342.488 72.168 341.4 72.168C340.168 72.168 339.368 73.096 339.176 74.184V76.856V79H337.576V76.856V74.232C337.576 72.808 337.048 72.168 335.96 72.168C334.728 72.168 333.928 73.096 333.736 74.184V76.856V79H332.136ZM348.196 79.224C346.756 79.224 345.748 78.52 345.748 77.112C345.748 75.576 346.948 75.08 348.948 74.488C350.404 74.056 351.172 73.848 351.172 73.048C351.172 72.392 350.628 72.056 349.636 72.056C348.388 72.056 347.556 72.664 347.524 73.768H345.956C346.132 72.072 347.508 70.888 349.732 70.888C351.444 70.888 352.756 71.592 352.756 73.48V76.616C352.756 77.688 353.076 78.008 353.588 78.008C353.732 78.008 353.94 77.976 354.068 77.864V78.84C353.86 78.984 353.476 79.112 352.98 79.112C352.148 79.112 351.38 78.616 351.252 77.384C350.804 78.312 349.812 79.224 348.196 79.224ZM347.332 77.032C347.332 77.8 347.908 78.072 348.516 78.072C350.036 78.072 351.188 76.76 351.188 75.288V74.632C350.884 75.064 350.196 75.24 349.3 75.544C347.94 75.992 347.332 76.264 347.332 77.032ZM360.504 79V77.288C359.976 78.392 359.016 79.144 357.656 79.144C355.448 79.144 354.296 77.352 354.296 75.064C354.296 72.744 355.592 70.904 357.896 70.904C358.92 70.904 359.784 71.288 360.504 72.12V68.632V66.52H362.135V68.632V76.856V79H360.504ZM355.896 75.08C355.896 76.6 356.568 77.896 358.152 77.896C359.736 77.896 360.504 76.44 360.504 74.808V73.496C359.896 72.616 359.128 72.152 358.2 72.152C356.712 72.152 355.896 73.32 355.896 75.08ZM367.469 79.272C365.245 79.272 363.549 77.8 363.549 75.192C363.549 72.632 365.181 70.904 367.517 70.904C369.981 70.904 371.469 72.632 371.469 75.192H365.101C365.133 76.904 366.013 78.04 367.517 78.04C368.909 78.04 369.629 77.064 369.805 76.184H371.373C371.133 77.688 369.853 79.272 367.469 79.272ZM365.229 74.008H369.821C369.597 72.888 368.813 72.104 367.517 72.104C366.317 72.104 365.517 72.824 365.229 74.008ZM376.543 79V76.856V73.32V71.176H378.175V76.856V79H376.543ZM376.479 69.224V67.4H378.239V69.224H376.479ZM379.964 79V76.856V73.32V71.176H381.596V72.712C382.108 71.72 383.116 70.904 384.572 70.904C386.14 70.904 387.164 71.8 387.164 74.152V76.856V79H385.532V76.856V74.232C385.532 72.808 384.988 72.168 383.884 72.168C382.588 72.168 381.756 73.16 381.596 74.28V76.856V79H379.964ZM397.419 79.272C394.603 79.272 392.779 77.896 392.779 74.104V69.032V66.888H394.555V69.032V74.184C394.555 76.808 395.467 77.864 397.435 77.864C399.419 77.864 400.315 76.76 400.315 74.184V69.032V66.888H402.059V69.032V74.104C402.059 77.8 400.331 79.272 397.419 79.272ZM407.997 79.272C405.181 79.272 403.325 77.704 403.037 75.064H404.749C405.005 76.872 406.157 77.896 408.013 77.896C409.677 77.896 410.637 77.256 410.637 75.928C410.637 74.696 409.581 74.28 407.197 73.416C404.845 72.552 403.437 71.816 403.437 69.88C403.421 67.816 405.197 66.696 407.581 66.696C410.109 66.696 411.901 68.056 412.205 70.36H410.509C410.301 68.968 409.213 68.072 407.533 68.072C405.997 68.072 405.149 68.712 405.149 69.8C405.149 71.032 406.365 71.416 408.189 72.072C410.733 72.984 412.317 73.64 412.317 75.736C412.317 78.008 410.573 79.272 407.997 79.272ZM411.987 79C412.179 78.472 412.435 77.816 412.627 77.288L416.195 67.832C416.323 67.48 416.435 67.192 416.531 66.888H418.147L422.067 77.368C422.259 77.896 422.499 78.504 422.675 79H420.771C420.611 78.504 420.419 77.912 420.227 77.368L419.683 75.832H414.899L414.355 77.352C414.163 77.896 413.955 78.52 413.795 79H411.987ZM415.347 74.552H419.235L417.299 69.032L415.347 74.552ZM422.665 80.44C423.513 80.296 423.897 79.864 423.945 78.984H423.145V77.144H424.793V78.744C424.793 80.296 424.057 81.096 422.665 81.304V80.44ZM430.217 79V76.856V72.36H428.521V71.176H430.217V69.832C430.217 67.384 431.529 66.36 433.257 66.36C434.441 66.36 435.337 66.84 435.929 67.752L434.953 68.568C434.601 68.008 434.137 67.576 433.353 67.576C432.393 67.576 431.849 68.216 431.849 69.528V71.176H434.889V72.36H431.849V76.856V79H430.217ZM438.563 79.272C436.339 79.272 434.643 77.8 434.643 75.192C434.643 72.632 436.275 70.904 438.611 70.904C441.075 70.904 442.563 72.632 442.563 75.192H436.195C436.227 76.904 437.107 78.04 438.611 78.04C440.003 78.04 440.723 77.064 440.899 76.184H442.467C442.227 77.688 440.947 79.272 438.563 79.272ZM436.323 74.008H440.915C440.691 72.888 439.907 72.104 438.611 72.104C437.411 72.104 436.611 72.824 436.323 74.008ZM449.488 79V77.288C448.96 78.392 448 79.144 446.64 79.144C444.432 79.144 443.28 77.352 443.28 75.064C443.28 72.744 444.576 70.904 446.88 70.904C447.904 70.904 448.768 71.288 449.488 72.12V68.632V66.52H451.12V68.632V76.856V79H449.488ZM444.88 75.08C444.88 76.6 445.552 77.896 447.136 77.896C448.72 77.896 449.488 76.44 449.488 74.808V73.496C448.88 72.616 448.112 72.152 447.184 72.152C445.696 72.152 444.88 73.32 444.88 75.08ZM456.454 79.272C454.23 79.272 452.534 77.8 452.534 75.192C452.534 72.632 454.166 70.904 456.502 70.904C458.966 70.904 460.454 72.632 460.454 75.192H454.086C454.118 76.904 454.998 78.04 456.502 78.04C457.894 78.04 458.614 77.064 458.79 76.184H460.358C460.118 77.688 458.838 79.272 456.454 79.272ZM454.214 74.008H458.806C458.582 72.888 457.798 72.104 456.502 72.104C455.302 72.104 454.502 72.824 454.214 74.008ZM461.699 79V76.856V73.32V71.176H463.331V73.08C463.603 72.136 464.562 70.968 466.563 70.952V72.408C464.419 72.408 463.363 73.448 463.331 75.128V76.856V79H461.699ZM468.915 79.224C467.475 79.224 466.467 78.52 466.467 77.112C466.467 75.576 467.667 75.08 469.667 74.488C471.123 74.056 471.891 73.848 471.891 73.048C471.891 72.392 471.347 72.056 470.355 72.056C469.107 72.056 468.275 72.664 468.243 73.768H466.675C466.851 72.072 468.227 70.888 470.451 70.888C472.163 70.888 473.475 71.592 473.475 73.48V76.616C473.475 77.688 473.795 78.008 474.307 78.008C474.451 78.008 474.659 77.976 474.787 77.864V78.84C474.579 78.984 474.195 79.112 473.699 79.112C472.867 79.112 472.099 78.616 471.971 77.384C471.523 78.312 470.531 79.224 468.915 79.224ZM468.051 77.032C468.051 77.8 468.627 78.072 469.235 78.072C470.755 78.072 471.907 76.76 471.907 75.288V74.632C471.603 75.064 470.915 75.24 470.019 75.544C468.659 75.992 468.051 76.264 468.051 77.032ZM475.558 79V76.856V68.632V66.52H477.19V68.632V76.856V79H475.558ZM478.996 79V76.856V68.632V66.52H480.628V68.632V76.856V79H478.996ZM482.465 82.888C481.985 82.888 481.585 82.808 481.361 82.696V81.336C481.553 81.448 481.953 81.528 482.369 81.528C483.393 81.528 484.033 80.936 484.849 79H484.529L482.193 72.92L481.521 71.176H483.345L483.921 72.872L485.409 77.176L486.865 72.872C487.057 72.312 487.281 71.64 487.425 71.176H489.233C489.009 71.72 488.785 72.296 488.561 72.872L486.225 78.936C485.057 81.976 483.937 82.888 482.465 82.888ZM493.511 79V76.856V68.632V66.52H495.143V68.632V76.856V79H493.511ZM500.485 79.272C498.261 79.272 496.565 77.8 496.565 75.192C496.565 72.632 498.197 70.904 500.533 70.904C502.997 70.904 504.485 72.632 504.485 75.192H498.117C498.149 76.904 499.029 78.04 500.533 78.04C501.925 78.04 502.645 77.064 502.821 76.184H504.389C504.149 77.688 502.869 79.272 500.485 79.272ZM498.245 74.008H502.837C502.613 72.888 501.829 72.104 500.533 72.104C499.333 72.104 498.533 72.824 498.245 74.008ZM508.263 83.096C506.487 83.096 505.127 82.536 505.127 81.208C505.127 80.536 505.623 79.864 506.711 79.464C505.591 79.416 504.871 78.84 504.871 77.976C504.871 77.16 505.511 76.536 506.503 76.056C506.023 75.544 505.735 74.84 505.735 73.992C505.735 72.072 507.191 70.904 509.239 70.904C510.231 70.904 511.079 71.176 511.703 71.688C511.879 70.536 512.807 69.784 514.039 69.784V71.16C512.999 71.16 512.359 71.544 512.247 72.296C512.551 72.76 512.727 73.336 512.727 74.008C512.727 75.928 511.303 77.096 509.271 77.096C508.487 77.096 507.783 76.92 507.223 76.616C506.583 76.92 506.183 77.208 506.183 77.72C506.183 78.056 506.471 78.296 507.431 78.296C508.999 78.296 510.455 77.944 511.735 77.944C513.127 77.944 513.863 78.456 513.863 79.512C513.863 81.752 510.903 83.096 508.263 83.096ZM506.471 80.968C506.471 81.72 507.319 81.912 508.263 81.912C510.519 81.912 512.359 81.064 512.359 79.944C512.359 79.416 511.975 79.24 511.191 79.24C509.351 79.24 506.471 79.88 506.471 80.968ZM507.271 73.992C507.271 75.144 508.023 75.912 509.239 75.912C510.455 75.912 511.207 75.144 511.207 73.992C511.207 72.856 510.439 72.088 509.239 72.088C508.023 72.088 507.271 72.856 507.271 73.992ZM516.493 79.224C515.053 79.224 514.045 78.52 514.045 77.112C514.045 75.576 515.245 75.08 517.245 74.488C518.701 74.056 519.469 73.848 519.469 73.048C519.469 72.392 518.925 72.056 517.933 72.056C516.685 72.056 515.853 72.664 515.821 73.768H514.253C514.429 72.072 515.805 70.888 518.029 70.888C519.741 70.888 521.053 71.592 521.053 73.48V76.616C521.053 77.688 521.373 78.008 521.885 78.008C522.029 78.008 522.237 77.976 522.365 77.864V78.84C522.157 78.984 521.773 79.112 521.277 79.112C520.445 79.112 519.677 78.616 519.549 77.384C519.101 78.312 518.109 79.224 516.493 79.224ZM515.629 77.032C515.629 77.8 516.205 78.072 516.813 78.072C518.333 78.072 519.485 76.76 519.485 75.288V74.632C519.181 75.064 518.493 75.24 517.597 75.544C516.237 75.992 515.629 76.264 515.629 77.032ZM523.136 79V76.856V68.632V66.52H524.768V68.632V76.856V79H523.136Z" fill="black"/>
<circle cx="16" cy="74" r="15.5" stroke="black"/>
<path d="M16 84.5V68.5" stroke="black" stroke-linecap="round" stroke-linejoin="round"/>
<path d="M14.7499 70.5C13 69.5 13 67 16 63.25C19 67 19 69.5 17.2499 70.5" stroke="black" stroke-linecap="round" stroke-linejoin="round"/>
<path d="M16 82.75C16 78 13.5 75 10.5 74" stroke="black" stroke-linecap="round" stroke-linejoin="round"/>
<path d="M11.6669 75.8649C10.0842 77.1129 7.7662 76.1764 5.41311 71.99C10.0139 70.6132 12.3318 71.5498 12.6034 73.547" stroke="black" stroke-linecap="round" stroke-linejoin="round"/>
<path d="M16 82.75C16 78 18.5 75 21.5 74" stroke="black" stroke-linecap="round" stroke-linejoin="round"/>
<path d="M20.3331 75.8649C21.9158 77.1129 24.2338 76.1764 26.5869 71.99C21.9861 70.6132 19.6682 71.5498 19.3966 73.547" stroke="black" stroke-linecap="round" stroke-linejoin="round"/>
<path d="M52.784 79.272C50.208 79.272 48.688 77.544 48.688 75.08C48.688 72.616 50.208 70.904 52.784 70.904C55.36 70.904 56.864 72.616 56.864 75.08C56.864 77.544 55.36 79.272 52.784 79.272ZM50.304 75.08C50.304 77 51.312 78.024 52.784 78.024C54.256 78.024 55.248 77 55.248 75.08C55.248 73.176 54.256 72.152 52.784 72.152C51.312 72.152 50.304 73.176 50.304 75.08ZM58.1829 79V76.856V73.32V71.176H59.8149V73.08C60.0869 72.136 61.0469 70.968 63.0469 70.952V72.408C60.9029 72.408 59.8469 73.448 59.8149 75.128V76.856V79H58.1829ZM65.9033 83.096C64.1273 83.096 62.7673 82.536 62.7673 81.208C62.7673 80.536 63.2633 79.864 64.3513 79.464C63.2313 79.416 62.5113 78.84 62.5113 77.976C62.5113 77.16 63.1513 76.536 64.1432 76.056C63.6633 75.544 63.3753 74.84 63.3753 73.992C63.3753 72.072 64.8313 70.904 66.8793 70.904C67.8713 70.904 68.7193 71.176 69.3433 71.688C69.5193 70.536 70.4473 69.784 71.6793 69.784V71.16C70.6393 71.16 69.9993 71.544 69.8873 72.296C70.1913 72.76 70.3673 73.336 70.3673 74.008C70.3673 75.928 68.9433 77.096 66.9113 77.096C66.1273 77.096 65.4233 76.92 64.8633 76.616C64.2233 76.92 63.8233 77.208 63.8233 77.72C63.8233 78.056 64.1113 78.296 65.0713 78.296C66.6393 78.296 68.0953 77.944 69.3753 77.944C70.7673 77.944 71.5033 78.456 71.5033 79.512C71.5033 81.752 68.5433 83.096 65.9033 83.096ZM64.1113 80.968C64.1113 81.72 64.9593 81.912 65.9033 81.912C68.1593 81.912 69.9993 81.064 69.9993 79.944C69.9993 79.416 69.6153 79.24 68.8313 79.24C66.9913 79.24 64.1113 79.88 64.1113 80.968ZM64.9113 73.992C64.9113 75.144 65.6633 75.912 66.8793 75.912C68.0953 75.912 68.8473 75.144 68.8473 73.992C68.8473 72.856 68.0793 72.088 66.8793 72.088C65.6633 72.088 64.9113 72.856 64.9113 73.992ZM74.1334 79.224C72.6934 79.224 71.6854 78.52 71.6854 77.112C71.6854 75.576 72.8854 75.08 74.8854 74.488C76.3414 74.056 77.1094 73.848 77.1094 73.048C77.1094 72.392 76.5654 72.056 75.5734 72.056C74.3254 72.056 73.4934 72.664 73.4614 73.768H71.8934C72.0694 72.072 73.4454 70.888 75.6694 70.888C77.3814 70.888 78.6934 71.592 78.6934 73.48V76.616C78.6934 77.688 79.0134 78.008 79.5254 78.008C79.6694 78.008 79.8774 77.976 80.0054 77.864V78.84C79.7974 78.984 79.4134 79.112 78.9174 79.112C78.0854 79.112 77.3174 78.616 77.1894 77.384C76.7414 78.312 75.7494 79.224 74.1334 79.224ZM73.2694 77.032C73.2694 77.8 73.8454 78.072 74.4534 78.072C75.9734 78.072 77.1254 76.76 77.1254 75.288V74.632C76.8214 75.064 76.1334 75.24 75.2374 75.544C73.8774 75.992 73.2694 76.264 73.2694 77.032ZM80.761 79V76.856V73.32V71.176H82.393V72.712C82.905 71.72 83.913 70.904 85.369 70.904C86.937 70.904 87.961 71.8 87.961 74.152V76.856V79H86.329V76.856V74.232C86.329 72.808 85.785 72.168 84.681 72.168C83.385 72.168 82.553 73.16 82.393 74.28V76.856V79H80.761ZM89.6676 79V76.856V73.32V71.176H91.2996V76.856V79H89.6676ZM89.6036 69.224V67.4H91.3636V69.224H89.6036ZM96.5931 79.272C94.3531 79.272 92.6411 77.72 92.6411 75.048C92.6411 72.408 94.3371 70.904 96.6731 70.904C98.8171 70.904 100.241 72.264 100.513 73.928H98.9771C98.7851 73.112 98.1451 72.136 96.6891 72.136C95.0411 72.136 94.2411 73.416 94.2411 75.048C94.2411 76.664 95.0411 78.04 96.6891 78.04C98.2251 78.04 98.8491 76.952 99.0091 75.88H100.545C100.337 77.688 99.0251 79.272 96.5931 79.272ZM105.527 79V76.856V73.32V71.176H107.159V76.856V79H105.527ZM105.463 69.224V67.4H107.223V69.224H105.463ZM108.949 79V76.856V73.32V71.176H110.581V72.712C111.093 71.72 112.101 70.904 113.557 70.904C115.125 70.904 116.149 71.8 116.149 74.152V76.856V79H114.517V76.856V74.232C114.517 72.808 113.973 72.168 112.869 72.168C111.573 72.168 110.741 73.16 110.581 74.28V76.856V79H108.949ZM120.575 83.096C118.799 83.096 117.439 82.536 117.439 81.208C117.439 80.536 117.935 79.864 119.023 79.464C117.903 79.416 117.183 78.84 117.183 77.976C117.183 77.16 117.823 76.536 118.815 76.056C118.335 75.544 118.047 74.84 118.047 73.992C118.047 72.072 119.503 70.904 121.551 70.904C122.543 70.904 123.391 71.176 124.015 71.688C124.191 70.536 125.119 69.784 126.351 69.784V71.16C125.311 71.16 124.671 71.544 124.559 72.296C124.863 72.76 125.039 73.336 125.039 74.008C125.039 75.928 123.615 77.096 121.583 77.096C120.799 77.096 120.095 76.92 119.535 76.616C118.895 76.92 118.495 77.208 118.495 77.72C118.495 78.056 118.783 78.296 119.743 78.296C121.311 78.296 122.767 77.944 124.047 77.944C125.439 77.944 126.175 78.456 126.175 79.512C126.175 81.752 123.215 83.096 120.575 83.096ZM118.783 80.968C118.783 81.72 119.631 81.912 120.575 81.912C122.831 81.912 124.671 81.064 124.671 79.944C124.671 79.416 124.287 79.24 123.503 79.24C121.663 79.24 118.783 79.88 118.783 80.968ZM119.583 73.992C119.583 75.144 120.335 75.912 121.551 75.912C122.767 75.912 123.519 75.144 123.519 73.992C123.519 72.856 122.751 72.088 121.551 72.088C120.335 72.088 119.583 72.856 119.583 73.992ZM127.136 79V76.856V73.32V71.176H128.768V73.08C129.04 72.136 130 70.968 132 70.952V72.408C129.856 72.408 128.8 73.448 128.768 75.128V76.856V79H127.136ZM136.063 79.272C133.839 79.272 132.143 77.8 132.143 75.192C132.143 72.632 133.775 70.904 136.111 70.904C138.575 70.904 140.063 72.632 140.063 75.192H133.695C133.727 76.904 134.607 78.04 136.111 78.04C137.503 78.04 138.223 77.064 138.399 76.184H139.967C139.727 77.688 138.447 79.272 136.063 79.272ZM133.823 74.008H138.415C138.191 72.888 137.407 72.104 136.111 72.104C134.911 72.104 134.111 72.824 133.823 74.008ZM146.988 79V77.288C146.46 78.392 145.5 79.144 144.14 79.144C141.932 79.144 140.78 77.352 140.78 75.064C140.78 72.744 142.076 70.904 144.38 70.904C145.404 70.904 146.268 71.288 146.988 72.12V68.632V66.52H148.62V68.632V76.856V79H146.988ZM142.38 75.08C142.38 76.6 143.052 77.896 144.636 77.896C146.22 77.896 146.988 76.44 146.988 74.808V73.496C146.38 72.616 145.612 72.152 144.684 72.152C143.196 72.152 142.38 73.32 142.38 75.08ZM150.418 79V76.856V73.32V71.176H152.05V76.856V79H150.418ZM150.354 69.224V67.4H152.114V69.224H150.354ZM157.391 79.272C155.167 79.272 153.471 77.8 153.471 75.192C153.471 72.632 155.103 70.904 157.439 70.904C159.903 70.904 161.391 72.632 161.391 75.192H155.023C155.055 76.904 155.935 78.04 157.439 78.04C158.831 78.04 159.551 77.064 159.727 76.184H161.295C161.055 77.688 159.775 79.272 157.391 79.272ZM155.151 74.008H159.743C159.519 72.888 158.735 72.104 157.439 72.104C156.239 72.104 155.439 72.824 155.151 74.008ZM162.636 79V76.856V73.32V71.176H164.268V72.712C164.78 71.72 165.788 70.904 167.244 70.904C168.812 70.904 169.836 71.8 169.836 74.152V76.856V79H168.204V76.856V74.232C168.204 72.808 167.66 72.168 166.556 72.168C165.26 72.168 164.428 73.16 164.268 74.28V76.856V79H162.636ZM174.331 79.144C172.939 79.144 171.915 78.456 171.915 76.328V72.36H170.235V71.176H171.915V69.144L173.451 67.992H173.547V71.176H176.075V72.36H173.547V76.296C173.547 77.56 174.123 77.912 174.843 77.912C175.499 77.912 176.011 77.624 176.363 77.144L176.587 78.2C176.235 78.664 175.467 79.144 174.331 79.144ZM180.522 79.272C178.33 79.272 176.874 78.216 176.65 76.36H178.218C178.394 77.464 179.162 78.024 180.538 78.024C181.402 78.024 182.186 77.8 182.186 77.064C182.186 76.296 181.642 76.136 179.93 75.624C178.378 75.16 177.082 74.632 177.082 73.176C177.082 71.8 178.346 70.904 180.218 70.904C182.314 70.904 183.466 71.88 183.706 73.384H182.138C182.01 72.616 181.386 72.152 180.154 72.152C179.258 72.152 178.65 72.44 178.65 73.064C178.65 73.816 179.37 74.04 180.89 74.488C182.842 75.064 183.786 75.576 183.786 76.952C183.786 78.552 182.33 79.272 180.522 79.272Z" fill="black"/>
</svg>
