<svg width="196" height="32" viewBox="0 0 196 32" fill="none" xmlns="http://www.w3.org/2000/svg">
<g filter="url(#filter0_d_1120_1422)">
<rect x="4.5" y="0.5" width="34" height="23" rx="3.5" fill="white" stroke="#D9D9D9"/>
<path fill-rule="evenodd" clip-rule="evenodd" d="M14.6253 16.2582H12.5049L10.915 10.1924C10.8395 9.91334 10.6792 9.66667 10.4435 9.5504C9.85531 9.25823 9.20712 9.0257 8.5 8.90843V8.6749H11.9157C12.3871 8.6749 12.7406 9.0257 12.7996 9.43313L13.6245 13.8086L15.7438 8.6749H17.8052L14.6253 16.2582ZM18.9838 16.2582H16.9813L18.6302 8.6749H20.6327L18.9838 16.2582ZM23.2234 10.7757C23.2823 10.3673 23.6359 10.1337 24.0483 10.1337C24.6965 10.0751 25.4026 10.1924 25.9919 10.4835L26.3454 8.85081C25.7562 8.61727 25.108 8.5 24.5198 8.5C22.5762 8.5 21.162 9.55041 21.162 11.0082C21.162 12.1173 22.1637 12.6996 22.8708 13.0504C23.6359 13.4002 23.9305 13.6338 23.8716 13.9835C23.8716 14.5082 23.2823 14.7418 22.6941 14.7418C21.9869 14.7418 21.2798 14.5669 20.6327 14.2747L20.2791 15.9085C20.9862 16.1996 21.7512 16.3169 22.4584 16.3169C24.6376 16.3745 25.9919 15.3251 25.9919 13.75C25.9919 11.7665 23.2234 11.6502 23.2234 10.7757ZM33 16.2582L31.41 8.6749H29.7022C29.3486 8.6749 28.9951 8.90843 28.8772 9.25823L25.9329 16.2582H27.9943L28.4058 15.1502H30.9386L31.1743 16.2582H33ZM29.9968 10.7171L30.585 13.5751H28.9361L29.9968 10.7171Z" fill="#172B85"/>
<rect x="55.5" y="0.5" width="34" height="23" rx="3.5" fill="#1F72CD" stroke="#D9D9D9"/>
<path fill-rule="evenodd" clip-rule="evenodd" d="M61.6811 8.5L58.5 15.7467H62.3082L62.7803 14.5913H63.8595L64.3316 15.7467H68.5234V14.8649L68.8969 15.7467H71.0652L71.4387 14.8462V15.7467H80.1566L81.2166 14.6213L82.2092 15.7467L86.6868 15.7561L83.4957 12.1436L86.6868 8.5H82.2786L81.2467 9.60463L80.2854 8.5H70.8016L69.9872 10.3704L69.1537 8.5H65.3534V9.35186L64.9307 8.5H61.6811ZM74.6994 9.52905H79.7055L81.2367 11.2316L82.8172 9.52905H84.3484L82.0219 12.1426L84.3484 14.726H82.7477L81.2166 13.0036L79.628 14.726H74.6994V9.52905ZM75.9356 11.555V10.6057V10.6048H79.0593L80.4223 12.1229L78.9989 13.6493H75.9356V12.613H78.6667V11.555H75.9356ZM62.418 9.52905H64.2743L66.3843 14.4431V9.52905H68.4178L70.0476 13.0524L71.5496 9.52905H73.573V14.7291H72.3418L72.3317 10.6544L70.5368 14.7291H69.4355L67.6305 10.6544V14.7291H65.0977L64.6176 13.5633H62.0234L61.5442 14.728H60.1872L62.418 9.52905ZM62.4663 12.4856L63.321 10.4089L64.1747 12.4856H62.4663Z" fill="white"/>
<rect x="106.5" y="0.5" width="34" height="23" rx="3.5" fill="white" stroke="#D9D9D9"/>
<path d="M121 23L140 17.25V20C140 21.6569 138.657 23 137 23H121Z" fill="#FD6020"/>
<path fill-rule="evenodd" clip-rule="evenodd" d="M136.394 9.11084C137.439 9.11084 138.014 9.59438 138.014 10.5077C138.066 11.2062 137.596 11.7972 136.969 11.9046L138.38 13.8925H137.282L136.08 11.9584H135.976V13.8925H135.087V9.11084H136.394ZM135.976 11.3139H136.237C136.812 11.3139 137.073 11.0453 137.073 10.5617C137.073 10.1319 136.812 9.86328 136.237 9.86328H135.976V11.3139ZM132.003 13.8925H134.512V13.0866H132.892V11.7972H134.46V10.9913H132.892V9.91674H134.512V9.11084H132.003V13.8925ZM129.39 12.3345L128.188 9.11084H127.247L129.181 14H129.652L131.585 9.11084H130.645L129.39 12.3345ZM118.781 11.5283C118.781 12.8715 119.826 13.9998 121.132 13.9998C121.551 13.9998 121.916 13.8923 122.282 13.7311V12.6566C122.021 12.9789 121.655 13.1939 121.237 13.1939C120.401 13.1939 119.721 12.5491 119.721 11.6895V11.582C119.669 10.7224 120.348 9.97024 121.185 9.91651C121.603 9.91651 122.021 10.1314 122.282 10.4538V9.37924C121.969 9.16433 121.551 9.11061 121.185 9.11061C119.826 9.00315 118.781 10.1314 118.781 11.5283ZM117.16 10.9376C116.638 10.7227 116.481 10.6152 116.481 10.3466C116.533 10.0242 116.794 9.75557 117.108 9.8093C117.369 9.8093 117.631 9.97048 117.84 10.1854L118.31 9.54066C117.944 9.2183 117.474 9.00339 117.003 9.00339C116.272 8.94967 115.645 9.54066 115.592 10.2928V10.3466C115.592 10.9913 115.854 11.3674 116.69 11.636C116.899 11.6897 117.108 11.7972 117.317 11.9046C117.474 12.0121 117.578 12.1733 117.578 12.3882C117.578 12.7643 117.265 13.0866 116.951 13.0866H116.899C116.481 13.0866 116.115 12.818 115.958 12.4419L115.383 13.0329C115.697 13.6239 116.324 13.9463 116.951 13.9463C117.787 14 118.467 13.3553 118.519 12.4956V12.3345C118.467 11.6897 118.206 11.3674 117.16 10.9376ZM114.129 13.8925H115.017V9.11084H114.129V13.8925ZM110 9.11086H111.307H111.568C112.822 9.16458 113.815 10.2391 113.763 11.5286C113.763 12.227 113.449 12.8717 112.927 13.3553C112.456 13.7314 111.882 13.9463 111.307 13.8926H110V9.11086ZM111.15 13.0866C111.568 13.1404 112.038 12.9792 112.352 12.7105C112.666 12.3882 112.822 11.9584 112.822 11.4748C112.822 11.045 112.666 10.6152 112.352 10.2928C112.038 10.0242 111.568 9.86302 111.15 9.91674H110.889V13.0866H111.15Z" fill="black"/>
<path fill-rule="evenodd" clip-rule="evenodd" d="M124.948 9C123.641 9 122.543 10.0745 122.543 11.4714C122.543 12.8146 123.589 13.9429 124.948 13.9966C126.307 14.0503 127.352 12.9221 127.404 11.5252C127.352 10.1283 126.307 9 124.948 9V9Z" fill="#FD6020"/>
<rect x="157.5" y="0.5" width="34" height="23" rx="3.5" fill="white" stroke="#D9D9D9"/>
<path fill-rule="evenodd" clip-rule="evenodd" d="M174.75 17.1569C173.558 18.1852 172.013 18.806 170.324 18.806C166.555 18.806 163.5 15.7154 163.5 11.903C163.5 8.09057 166.555 5 170.324 5C172.013 5 173.558 5.62075 174.75 6.64903C175.942 5.62075 177.487 5 179.176 5C182.945 5 186 8.09057 186 11.903C186 15.7154 182.945 18.806 179.176 18.806C177.487 18.806 175.942 18.1852 174.75 17.1569Z" fill="#ED0006"/>
<path fill-rule="evenodd" clip-rule="evenodd" d="M174.75 17.1569C176.217 15.8908 177.148 14.0068 177.148 11.903C177.148 9.79917 176.217 7.91517 174.75 6.64903C175.942 5.62075 177.487 5 179.176 5C182.945 5 186 8.09057 186 11.903C186 15.7154 182.945 18.806 179.176 18.806C177.487 18.806 175.942 18.1852 174.75 17.1569Z" fill="#F9A000"/>
<path fill-rule="evenodd" clip-rule="evenodd" d="M174.75 6.64893C176.217 7.91506 177.148 9.79905 177.148 11.9029C177.148 14.0067 176.217 15.8906 174.75 17.1568C173.283 15.8906 172.353 14.0067 172.353 11.9029C172.353 9.79905 173.283 7.91506 174.75 6.64893Z" fill="#FF5E00"/>
</g>
<defs>
<filter id="filter0_d_1120_1422" x="0" y="0" width="196" height="32" filterUnits="userSpaceOnUse" color-interpolation-filters="sRGB">
<feFlood flood-opacity="0" result="BackgroundImageFix"/>
<feColorMatrix in="SourceAlpha" type="matrix" values="0 0 0 0 0 0 0 0 0 0 0 0 0 0 0 0 0 0 127 0" result="hardAlpha"/>
<feOffset dy="4"/>
<feGaussianBlur stdDeviation="2"/>
<feComposite in2="hardAlpha" operator="out"/>
<feColorMatrix type="matrix" values="0 0 0 0 0 0 0 0 0 0 0 0 0 0 0 0 0 0 0.25 0"/>
<feBlend mode="normal" in2="BackgroundImageFix" result="effect1_dropShadow_1120_1422"/>
<feBlend mode="normal" in="SourceGraphic" in2="effect1_dropShadow_1120_1422" result="shape"/>
</filter>
</defs>
</svg>
